<svg width="213" height="39" viewBox="0 0 213 39" fill="none" xmlns="http://www.w3.org/2000/svg">
<path d="M29.2246 36L17.0176 36.5859L16.9199 25.3066H11.3047L10.9629 36H0.0253906L0.953125 1.67383L12.5742 2.21094L11.8418 19.7402H17.2617L17.3105 0.892578L28.4434 1.18555L29.2246 36ZM60.6455 1.625C59.9131 7.35417 59.2865 13.0589 58.7656 18.7393C58.2448 24.4033 57.7484 30.1081 57.2764 35.8535L47.2666 36.5859L47.7061 32.8262C47.3805 33.2005 46.998 33.526 46.5586 33.8027C46.1354 34.0794 45.6797 34.3073 45.1914 34.4863C44.7031 34.6491 44.1986 34.7712 43.6777 34.8525C43.1569 34.9176 42.6605 34.9421 42.1885 34.9258C41.0817 34.9095 40.04 34.6979 39.0635 34.291C38.0869 33.8678 37.1917 33.3145 36.3779 32.6309C35.5641 31.931 34.8317 31.1253 34.1807 30.2139C33.5296 29.2861 32.9762 28.3177 32.5205 27.3086C32.0811 26.2832 31.7393 25.2415 31.4951 24.1836C31.2673 23.1257 31.1533 22.1003 31.1533 21.1074C31.1533 19.6426 31.1777 18.1289 31.2266 16.5664C31.2917 14.9876 31.3975 13.4089 31.5439 11.8301C31.6904 10.2513 31.8776 8.6888 32.1055 7.14258C32.3496 5.59635 32.6507 4.11523 33.0088 2.69922C34.9945 2.79688 36.9883 2.88639 38.9902 2.96777C40.9922 3.04915 42.986 3.07357 44.9717 3.04102C44.5973 4.45703 44.223 5.88118 43.8486 7.31348C43.4906 8.72949 43.165 10.1618 42.8721 11.6104C42.5791 13.0426 42.3431 14.4831 42.1641 15.9316C41.985 17.3802 41.8955 18.8451 41.8955 20.3262C41.8955 20.668 41.9118 21.1562 41.9443 21.791C41.9769 22.4258 42.0583 23.0524 42.1885 23.6709C42.335 24.2894 42.5465 24.8346 42.8232 25.3066C43.1162 25.7624 43.5231 25.9902 44.0439 25.9902C44.6624 25.9902 45.2158 25.7298 45.7041 25.209C46.1924 24.6719 46.6237 23.9557 46.998 23.0605C47.3724 22.1654 47.6898 21.1318 47.9502 19.96C48.2269 18.7881 48.4548 17.5674 48.6338 16.2979C48.8291 15.012 48.9837 13.7181 49.0977 12.416C49.2116 11.1139 49.293 9.89323 49.3418 8.75391C49.4069 7.59831 49.4476 6.56478 49.4639 5.65332C49.4964 4.74186 49.5127 4.03385 49.5127 3.5293C49.5127 3.20378 49.5046 2.88639 49.4883 2.57715C49.472 2.2679 49.4476 1.95052 49.415 1.625C50.473 1.65755 51.5228 1.68197 52.5645 1.69824C53.6061 1.71452 54.6559 1.72266 55.7139 1.72266C56.5277 1.72266 57.3415 1.72266 58.1553 1.72266C58.9854 1.70638 59.8154 1.67383 60.6455 1.625ZM92.4082 23.6465C92.4082 25.4857 92.3838 27.3086 92.335 29.1152C92.3024 30.9056 92.2454 32.7122 92.1641 34.5352L78.1016 34.291C78.5898 31.4102 79.013 28.5374 79.3711 25.6729C79.7292 22.792 79.9082 19.8867 79.9082 16.957C79.9082 16.7454 79.9001 16.4036 79.8838 15.9316C79.8675 15.4596 79.835 14.9307 79.7861 14.3447C79.7373 13.7425 79.6641 13.1322 79.5664 12.5137C79.485 11.8789 79.363 11.3011 79.2002 10.7803C79.0537 10.2594 78.8665 9.83626 78.6387 9.51074C78.4271 9.16895 78.1667 8.99805 77.8574 8.99805C77.304 8.99805 76.832 9.16081 76.4414 9.48633C76.0671 9.81185 75.7497 10.235 75.4893 10.7559C75.2451 11.2604 75.0498 11.8301 74.9033 12.4648C74.7568 13.0996 74.6429 13.7344 74.5615 14.3691C74.4964 15.0039 74.4476 15.6061 74.415 16.1758C74.3988 16.7292 74.3906 17.1849 74.3906 17.543C74.3092 20.4238 74.2441 23.2884 74.1953 26.1367C74.1465 28.9688 74.0814 31.8333 74 34.7305L61.5488 35.2676C61.8743 29.5221 62.1836 23.8092 62.4766 18.1289C62.7858 12.4486 63.0299 6.73568 63.209 0.990234L74.7324 0.404297L74.6348 4.31055C75.0905 3.75716 75.5788 3.23633 76.0996 2.74805C76.6367 2.25977 77.2064 1.84473 77.8086 1.50293C78.4108 1.14486 79.0456 0.868164 79.7129 0.672852C80.3965 0.461263 81.1126 0.355469 81.8613 0.355469C83.2448 0.355469 84.4574 0.583333 85.499 1.03906C86.5407 1.49479 87.4359 2.11328 88.1846 2.89453C88.9333 3.67578 89.5599 4.60352 90.0645 5.67773C90.569 6.73568 90.9759 7.86686 91.2852 9.07129C91.5944 10.2757 91.8304 11.5371 91.9932 12.8555C92.1559 14.1576 92.2617 15.4434 92.3105 16.7129C92.3757 17.9824 92.4082 19.2113 92.4082 20.3994C92.4082 21.5876 92.4082 22.6699 92.4082 23.6465ZM124.244 30.5312C123.479 31.4915 122.535 32.3298 121.412 33.0459C120.289 33.762 119.085 34.3561 117.799 34.8281C116.513 35.3001 115.195 35.6582 113.844 35.9023C112.493 36.1302 111.207 36.2441 109.986 36.2441C107.626 36.2441 105.453 35.8454 103.468 35.0479C101.482 34.2503 99.765 33.1436 98.3164 31.7275C96.8841 30.2952 95.7611 28.5944 94.9473 26.625C94.1335 24.6556 93.7266 22.5072 93.7266 20.1797C93.7266 18.4056 93.93 16.6803 94.3369 15.0039C94.7438 13.3275 95.3216 11.7568 96.0703 10.292C96.8353 8.82715 97.763 7.48438 98.8535 6.26367C99.944 5.04297 101.181 3.99316 102.564 3.11426C103.948 2.23535 105.462 1.5599 107.105 1.08789C108.766 0.599609 110.523 0.355469 112.379 0.355469C113.079 0.355469 113.827 0.388021 114.625 0.453125C115.423 0.501953 116.212 0.599609 116.993 0.746094C117.791 0.876302 118.564 1.06348 119.312 1.30762C120.061 1.55176 120.745 1.85286 121.363 2.21094L120.68 11.5371C119.768 11.1953 118.824 10.9674 117.848 10.8535C116.887 10.7233 115.943 10.6582 115.016 10.6582C113.714 10.6582 112.493 10.8372 111.354 11.1953C110.23 11.5371 109.246 12.0498 108.399 12.7334C107.569 13.417 106.91 14.2715 106.422 15.2969C105.934 16.3223 105.689 17.5104 105.689 18.8613C105.689 19.7077 105.803 20.5296 106.031 21.3271C106.259 22.1084 106.601 22.8083 107.057 23.4268C107.529 24.029 108.106 24.5173 108.79 24.8916C109.49 25.266 110.296 25.4531 111.207 25.4531C111.826 25.4531 112.46 25.3717 113.111 25.209C113.779 25.0462 114.348 24.7695 114.82 24.3789L114.918 22.4746L109.059 22.377L109.352 15.0527C111.777 14.9714 114.202 14.9062 116.627 14.8574C119.052 14.7923 121.493 14.7109 123.951 14.6133L124.244 30.5312ZM154.737 12.4648C154.737 13.7344 154.623 14.89 154.396 15.9316C154.184 16.957 153.842 17.901 153.37 18.7637C152.898 19.6263 152.288 20.4238 151.539 21.1562C150.79 21.8887 149.887 22.5885 148.829 23.2559L154.64 33.6074L143.653 35.7559L139.894 25.3555L136.866 25.4531L136.427 35.6094H125.929C126.01 31.8984 126.083 28.2038 126.148 24.5254C126.23 20.847 126.319 17.1523 126.417 13.4414C126.45 11.5697 126.482 9.71419 126.515 7.875C126.547 6.03581 126.612 4.18034 126.71 2.30859C127.849 1.88542 128.972 1.53548 130.079 1.25879C131.186 0.982096 132.293 0.770508 133.399 0.624023C134.522 0.461263 135.654 0.355469 136.793 0.306641C137.949 0.241536 139.129 0.208984 140.333 0.208984C142.188 0.208984 143.979 0.469401 145.704 0.990234C147.446 1.49479 148.984 2.25977 150.318 3.28516C151.653 4.31055 152.719 5.58822 153.517 7.11816C154.33 8.64811 154.737 10.4303 154.737 12.4648ZM143.8 13.2461C143.8 12.5625 143.702 11.9359 143.507 11.3662C143.328 10.7965 143.051 10.3083 142.677 9.90137C142.319 9.47819 141.863 9.15267 141.31 8.9248C140.772 8.68066 140.138 8.55859 139.405 8.55859C139.08 8.55859 138.762 8.58301 138.453 8.63184C138.144 8.66439 137.843 8.72135 137.55 8.80273L137.159 17.8848H137.745C138.445 17.8848 139.153 17.7952 139.869 17.6162C140.602 17.4372 141.253 17.1605 141.822 16.7861C142.408 16.4118 142.88 15.9316 143.238 15.3457C143.613 14.7598 143.8 14.0599 143.8 13.2461ZM186.012 2.94336L174.537 21.6934L174.879 35.5117H162.33L162.623 21.791L153.688 3.67578L166.139 2.11328L170.045 12.6602L174.293 2.11328L186.012 2.94336ZM201.71 26.4785H193.458C193.344 24.7533 193.442 23.3128 193.751 22.1572C194.06 20.9854 194.475 20.0169 194.996 19.252C195.533 18.4707 196.127 17.8441 196.778 17.3721C197.446 16.8838 198.089 16.4688 198.707 16.127C199.342 15.7689 199.895 15.4271 200.367 15.1016C200.855 14.776 201.189 14.3691 201.368 13.8809C201.482 13.5879 201.515 13.2542 201.466 12.8799C201.417 12.4893 201.246 12.123 200.953 11.7812C200.676 11.4395 200.253 11.1546 199.684 10.9268C199.13 10.6826 198.406 10.5605 197.511 10.5605C196.925 10.5605 196.225 10.6175 195.411 10.7314C194.614 10.8291 193.775 10.9919 192.896 11.2197C192.018 11.4313 191.147 11.6999 190.284 12.0254C189.438 12.3346 188.673 12.6927 187.989 13.0996L186.915 3.5293C187.517 3.17122 188.193 2.80501 188.941 2.43066C189.706 2.04004 190.545 1.69824 191.456 1.40527C192.368 1.09603 193.36 0.84375 194.435 0.648438C195.509 0.453125 196.664 0.355469 197.901 0.355469C199.903 0.355469 201.791 0.632161 203.565 1.18555C205.356 1.73893 206.918 2.55273 208.253 3.62695C209.588 4.70117 210.646 6.02767 211.427 7.60645C212.208 9.16895 212.599 10.9674 212.599 13.002C212.599 14.5482 212.379 15.7933 211.939 16.7373C211.5 17.665 210.938 18.43 210.255 19.0322C209.571 19.6344 208.806 20.139 207.96 20.5459C207.114 20.9528 206.284 21.4004 205.47 21.8887C204.672 22.3607 203.932 22.9466 203.248 23.6465C202.581 24.3464 202.068 25.2904 201.71 26.4785ZM202.931 32.9238C202.931 33.64 202.792 34.3073 202.516 34.9258C202.239 35.5443 201.865 36.0814 201.393 36.5371C200.937 37.0091 200.4 37.3753 199.781 37.6357C199.163 37.9124 198.504 38.0508 197.804 38.0508C197.088 38.0508 196.42 37.9124 195.802 37.6357C195.183 37.3753 194.638 37.0091 194.166 36.5371C193.71 36.0814 193.344 35.5443 193.067 34.9258C192.807 34.3073 192.677 33.64 192.677 32.9238C192.677 32.224 192.807 31.5566 193.067 30.9219C193.344 30.2871 193.71 29.7419 194.166 29.2861C194.638 28.8141 195.183 28.4398 195.802 28.1631C196.42 27.8864 197.088 27.748 197.804 27.748C198.504 27.748 199.163 27.8864 199.781 28.1631C200.4 28.4398 200.937 28.8141 201.393 29.2861C201.865 29.7419 202.239 30.2871 202.516 30.9219C202.792 31.5566 202.931 32.224 202.931 32.9238Z" fill="#08431D"/>
</svg>
